<svg xmlns="http://www.w3.org/2000/svg" aria-hidden="true" overflow="hidden" style="position:absolute;width:0;height:0">
  <defs>
    <symbol id="icon-smartphone" viewBox="0 0 20 32">
      <path d="M17 0H3a3 3 0 00-3 3v26a3 3 0 003 3h14a3 3 0 003-3V3a3 3 0 00-3-3zM3 2h14c.56 0 1 .44 1 1v21H2V3c0-.56.44-1 1-1zm14 28H3a1 1 0 01-1-1v-3h16v3a1 1 0 01-1 1z"/>
      <path d="M4.7 27.48c.4.36.4.96 0 1.32a1.05 1.05 0 01-1.4 0 .9.9 0 010-1.32c.4-.36 1-.36 1.4 0z"/>
    </symbol>
    <symbol id="icon-mail" viewBox="0 0 43 32">
      <path d="M38.67 0H4a4 4 0 00-4 4v24a4 4 0 004 4h34.67a4 4 0 004-4V4a4 4 0 00-4-4zm0 2.67c.2 0 .38.04.54.1h-.01L21.33 18.24 3.47 2.77c.15-.06.33-.1.52-.1h34.68zm0 26.66H4c-.74 0-1.33-.6-1.33-1.33V5.6l17.78 15.41a1.33 1.33 0 001.77 0L40 5.6V28c0 .74-.6 1.33-1.33 1.33z"/>
    </symbol>
    <symbol id="icon-antenna" viewBox="0 0 32 32">
      <path fill="var(--color2, #212121)" d="M30.77 22.1l-8.44-8.5.94-4.62c.24.09.5.14.76.14h.03a2.16 2.16 0 10-2.03-1.42V7.7l-4.96.6L8.97.16A.54.54 0 008.6 0a.52.52 0 00-.37.15L6.7 1.65a.53.53 0 000 .76l.82.82a14.9 14.9 0 002.52 17.66c.04.05.09.08.14.1-.03.2-.05.38-.05.56v6.18h-6.4a2.67 2.67 0 00-2.67 2.67v1.06c0 .3.24.54.54.54h24.53c.3 0 .53-.24.53-.54V30.4c0-1.47-1.2-2.67-2.66-2.67h-6.4V25a14.79 14.79 0 0010.17-1.5l-.08.04.81.82c.1.1.24.16.38.16s.27-.06.37-.15l1.51-1.51a.53.53 0 000-.75zm-7.5-15.87A1.06 1.06 0 0125.1 7c0 .59-.47 1.06-1.06 1.06a1.07 1.07 0 01-.75-1.82zm-1.25 3.5l-.6 2.95-1.17-1.18 1.77-1.76zm-.6-.9l-1.92 1.91L18 9.25l3.4-.41zM24 28.8c.89 0 1.6.72 1.6 1.6v.54H2.14v-.54c0-.88.72-1.6 1.6-1.6H24zm-7.46-2.14v1.07H11.2v-1.07h5.34zM11.2 25.6v-4.05c0-1.3 1.2-2.35 2.67-2.35s2.66 1.05 2.66 2.35v4.05H11.2zm6.4-1.7v-2.35c0-1.88-1.67-3.41-3.73-3.41h-.07a3.8 3.8 0 00-3.2 1.76l-.02.02A13.81 13.81 0 018.34 3.96l-.03.07 18.6 18.71a13.64 13.64 0 01-9.4 1.15l.1.01zm11.3-.68l-.76-.76L7.84 2.04l.75-.75 21.06 21.18-.76.75z"/>
      <path fill="var(--color3, #2196f3)" d="M13.87 20.27a1.6 1.6 0 000 3.2 1.6 1.6 0 000-3.2zm.38 1.98a.53.53 0 01-.91-.38c0-.3.23-.54.53-.54a.54.54 0 01.37.91z"/>
    </symbol>
    <symbol id="icon-clock" viewBox="0 0 32 32">
      <path fill="var(--color2, #212121)" d="M31.3 15.3a15.3 15.3 0 10-20.07 14.55l.1.03a.68.68 0 00.54-.06c.14-.08.23-.2.28-.36l3.86-12.25a1.91 1.91 0 10-.85-3.63h.01l-5.1-5.1a.64.64 0 00-.9.9l5.1 5.1a1.87 1.87 0 00.53 2.3v.01l-3.68 11.67a14.04 14.04 0 1110.66-.38l-.09.03-.4-1.87a.64.64 0 00-1.05-.34l-3.83 3.42a.64.64 0 00.22 1.08l4.9 1.57a.64.64 0 00.82-.75l-.39-1.83a15.28 15.28 0 009.33-14.06v-.03zM16 14.66a.64.64 0 010 1.28.64.64 0 010-1.28zm2.1 14.87l2.18-1.95.6 2.84-2.8-.9z"/>
      <path fill="var(--color3, #2196f3)" d="M15.36 3.19v1.33a.64.64 0 101.27-.06V3.18a.64.64 0 00-1.28 0zM3.88 14.66a.64.64 0 000 1.28h1.27a.64.64 0 000-1.28H3.87zm24.23 1.28a.64.64 0 000-1.28h-1.28a.64.64 0 000 1.28h1.28z"/>
    </symbol>
    <symbol id="icon-diagram" viewBox="0 0 32 32">
      <path fill="var(--color3, #2196f3)" d="M14.93 14.97h1.06v4.8h-1.06v-4.8zm4.26 2.13h1.07v2.66h-1.07V17.1zm-8.53 1.6h1.07v1.06h-1.07V18.7zm-3.2-.54h1.07v1.6H7.46v-1.6z"/>
      <path fill="var(--color2, #212121)" d="M1.6 28.3h25.59c.88 0 1.6-.72 1.6-1.6v-2.14c0-.89-.72-1.6-1.6-1.6h-.54V9.67l3.03-2.87a1.6 1.6 0 10-.75-.75v-.01L26.65 8.2V6.97c0-.88-.71-1.6-1.6-1.6H3.73c-.88 0-1.6.72-1.6 1.6v16H1.6c-.88 0-1.6.71-1.6 1.6v2.12c0 .89.72 1.6 1.6 1.6zM30.39 4.83h.04a.53.53 0 11-.05 1.06.54.54 0 010-1.06zM3.2 6.97c0-.3.24-.53.53-.53h21.32c.3 0 .54.23.54.53V9.2l-1.07 1.01V8.04c0-.3-.24-.54-.53-.54H4.8c-.3 0-.53.24-.53.54v13.32c0 .3.24.53.53.53H24c.29 0 .53-.23.53-.53V11.7l1.06-1.01v12.28H3.2v-16zM8 13.9h-.01a1.6 1.6 0 101.11 2.74l1.86.94c.21.1.47.05.63-.13l3.94-4.43 3.87 2.9c.21.16.5.14.69-.03l3.37-3.2v8.14H5.33V8.56h18.13v2.66l-3.78 3.57-3.9-2.92a.54.54 0 00-.72.07l-4 4.5-1.49-.75.03-.2c0-.88-.72-1.6-1.6-1.6zm.53 1.6a.53.53 0 11-1.07 0 .53.53 0 111.07 0zm3.2 8.53h5.32v.53c0 .3-.24.53-.53.53h-4.26a.54.54 0 01-.54-.53v-.53zm-10.67.53c0-.3.24-.53.54-.53h9.06v.53c0 .88.71 1.6 1.6 1.6h4.26c.89 0 1.6-.72 1.6-1.6v-.53h9.06c.3 0 .53.24.53.53v2.13c0 .3-.23.53-.53.53H1.6a.53.53 0 01-.53-.53v-2.13z"/>
    </symbol>
    <symbol id="icon-astronaut" viewBox="0 0 32 32">
      <path fill="var(--color3, #2196f3)" d="M31.97 4.53a.54.54 0 00-.43-.37l-1.9-.27-.86-1.74c-.18-.36-.78-.36-.96 0l-.85 1.74-1.9.27a.54.54 0 00-.3.92l1.38 1.34-.33 1.9v.09a.53.53 0 00.78.47l1.7-.9 1.71.9a.53.53 0 00.78-.57v.01l-.33-1.9 1.39-1.35c.14-.14.2-.35.13-.55zm-2.46 1.32a.53.53 0 00-.15.47l.19 1.12-1-.53a.52.52 0 00-.5 0l-1 .53.2-1.12a.53.53 0 00-.16-.47l-.81-.79 1.12-.16a.54.54 0 00.4-.3l.5-1 .5 1c.08.16.23.27.4.3l1.12.16-.8.8zm-3.38 14.68h-1.06v1.06h1.07v-1.07zm0 2.13h-1.06v1.06h1.07v-1.06zm1.07-1.07h-1.06v1.07h1.06v-1.07zm-2.13 0H24v1.07h1.06v-1.07zm-2.67 4.8h-1.06v1.07h1.06v-1.07zm0 2.14h-1.06v1.06h1.06v-1.07zm1.07-1.07H22.4v1.06h1.06v-1.06zm-2.13 0h-1.07v1.06h1.07v-1.06zM16 24.26h-1.06v1.06H16v-1.06zm0 2.13h-1.06v1.07H16v-1.07zm1.07-1.06H16v1.06h1.06v-1.07zm-2.13 0h-1.07v1.06h1.07v-1.07zM5.87 6.13H4.8v1.06h1.07V6.12zm0 2.13H4.8v1.06h1.07V8.26zm1.06-1.07H5.86v1.07h1.07V7.19zm-2.13 0H3.74v1.07H4.8V7.19z"/>
      <path fill="var(--color2, #212121)" d="M24.71 14.16c-.28-.38-.7-.64-1.18-.7a1.77 1.77 0 00-1.34.35l-1.25.96-1.9 1.41-1.36-.54A6.93 6.93 0 0014.83 2.4a6.95 6.95 0 00-5.84 10.7l-2.77-.03H6.2c-.06 0-.1.02-.16.03l-.03.02h-.03l-3.23 1.6-1.9.91a1.78 1.78 0 001.8 3.09h-.02l1.39-.73 2.26-1.17 1.36-.01-6.78 6.76a1.64 1.64 0 000 2.35 1.66 1.66 0 002.36 0l1.3-1.31 1.75-1.3.9.9-1.76 1.75-1.34 1.33a1.64 1.64 0 000 2.36 1.66 1.66 0 002.36 0l3.48-3.47 1.01-1 .02-.03 5.16-5.66 3.48.5h.06a.5.5 0 00.2-.03l.05-.03.06-.02 3.21-2.13.03-.04.04-.02 1.27-1.2a1.78 1.78 0 00.2-2.36h.01zm-22.58 3.6a.72.72 0 01-.78-1.2l1.32-.63.32.92.13.4-.99.52zm3.5-1.82l-1.55.8-.26-.74-.18-.54 2.03-1-.04 1.48zm15.1-6.61a5.8 5.8 0 01-.6 2.56l-4.18-1.9a1.86 1.86 0 00-.78-1.39h-.01l1.46-4.86a5.87 5.87 0 014.1 5.59zm-11.8 0a5.89 5.89 0 016.68-5.82h-.03l-1.44 4.75h-.05c-1.03 0-1.87.83-1.87 1.86a1.87 1.87 0 003.48.93l3.87 1.75A5.9 5.9 0 018.93 9.33zm5.96.8a.8.8 0 11-1.61 0 .8.8 0 011.61 0zM2.47 25.15a.61.61 0 01-.86 0 .6.6 0 010-.85l.96-.96.86.85-.97.95zm3.21 3.73a.6.6 0 01-.85-.84l.96-.96.4.4.45.45-.96.95zm3.49-3.47L7.4 27.17l-.85-.85 1.76-1.75.1-.14.02-.04a.37.37 0 00.02-.12l.02-.08-.02-.1-.02-.1a.7.7 0 00-.09-.14l-.03-.04-1.6-1.6-.06-.03c-.03-.03-.06-.05-.1-.06a.5.5 0 00-.08-.03.47.47 0 00-.1-.02h-.1l-.1.02a.31.31 0 00-.1.05l-.06.02-1.77 1.33-.9-.9 2.4-2.39 4.36 4.3-.93.91zm6.81-7.02h-.07a.52.52 0 00-.35.14l-.05.03-4.7 5.15-4.32-4.25 2.83-2.83c.1-.1.16-.23.16-.37 0-.3-.24-.54-.53-.54l-2.23.01.03-1.6 3.1.02a6.93 6.93 0 006.31 1.97l-.04.01c.03.03.08.07.13.09l2.4.96.16.76.18.88-3-.42zm4.04.18l-.3-1.55 1.44-1.08.38.5.56.75-2.08 1.38zm3.76-2.83l-.84.79-.93-1.24.83-.64a.73.73 0 01.55-.14.72.72 0 01.4 1.23z"/>
      <path fill="var(--color2, #212121)" d="M13.6 18.55l-2.14-2.14a.53.53 0 00-.75 0l-2.15 2.14a.53.53 0 000 .75l2.15 2.13a.53.53 0 00.75 0l2.14-2.13a.53.53 0 000-.75zm-2.51 1.75l-1.4-1.37 1.39-1.39 1.39 1.39-1.4 1.38zm6.08-15.23l-.27 1.04c.08.01 1.74.45 1.74 2.15h1.07c0-2.02-1.67-2.97-2.54-3.19zm2.54 4.26h-1.07v1.06h1.07V9.32z"/>
    </symbol>
    <symbol id="icon-yaco" viewBox="0 0 29 32">
      <path d="M3.84 0l4.67 4.43h13.06v12.35l4.67 4.42V0H3.84z"/>
      <path d="M0 4.24v20.6h21.76v-8.2L8.66 4.25H0zm17.61 17.58H3.44V7.97h1V20.9h13.17v.94zM6.27 28.66l.51-1.08h.45l-.77 1.44v.84h-.4v-.84l-.76-1.44h.45l.52 1.08zm2.24.67h-.88l-.18.53h-.42l.87-2.28h.35l.86 2.28H8.7l-.19-.53zm-.77-.32h.66l-.33-.95-.33.95zm2.33.23c0-.11.03-.2.09-.29.05-.09.17-.19.34-.31a1.41 1.41 0 01-.2-.27v-.01a.56.56 0 01-.04-.22v-.01c0-.17.05-.32.16-.42s.26-.16.44-.16h.02c.15 0 .28.06.38.15.11.1.16.22.16.36 0 .1-.02.18-.07.26a.93.93 0 01-.23.24l-.16.11.44.52a.9.9 0 00.1-.42h.33c0 .29-.07.52-.2.7l.33.39h-.44l-.13-.15a.92.92 0 01-.57.18.78.78 0 01-.55-.18.6.6 0 01-.2-.45v-.02zm.75.35c.14 0 .26-.05.36-.13l-.5-.59-.04.04c-.13.1-.2.2-.2.32 0 .1.04.19.11.25.07.07.16.1.27.1zm-.2-1.48c0 .1.05.21.16.34l.17-.12.05-.03a.3.3 0 00.1-.23.2.2 0 00-.07-.15.23.23 0 00-.16-.06h-.01a.24.24 0 00-.18.07.27.27 0 00-.06.18v.01zm4.13 1.01a.8.8 0 01-.27.57.95.95 0 01-.62.2h-.02a.9.9 0 01-.47-.13.86.86 0 01-.31-.36 1.3 1.3 0 01-.12-.54V28.63c0-.21.04-.4.12-.57a.86.86 0 01.82-.5c.24 0 .44.06.6.2.15.13.24.32.26.57h-.39c-.02-.16-.06-.28-.14-.35a.49.49 0 00-.34-.1c-.17 0-.3.06-.4.18a.9.9 0 00-.13.55v.2c0 .25.04.44.12.57.1.12.22.19.39.19.16 0 .27-.04.36-.1.07-.07.12-.2.14-.35h.4zm2.17-.34c0 .22-.04.42-.12.59a.89.89 0 01-.33.38 1 1 0 01-1 0 .9.9 0 01-.32-.38 1.33 1.33 0 01-.12-.56v-.15c0-.22.04-.41.12-.58.08-.17.2-.3.33-.39.14-.1.3-.14.5-.14H16c.36 0 .66.21.8.51v.01c.08.17.12.36.12.58v.13zm-.4-.12a.97.97 0 00-.14-.58.47.47 0 00-.39-.2h-.02c-.17 0-.3.06-.4.2a.98.98 0 00-.15.57v.12c0 .26.06.45.15.59.1.14.23.2.4.2.18 0 .32-.06.4-.2.1-.13.15-.32.15-.58v-.12z"/>
    </symbol>
    <symbol id="icon-tagline" viewBox="0 0 25 32">
      <path d="M10.45 1.8h.08l.5.03c.73.06 1.46.17 2.17.34V.4c-.95-.25-2.03-.4-3.16-.4h-.26C8.26 0 6.74.2 5.27.58A18.26 18.26 0 00.39 2.57l.08-.05V20a19.6 19.6 0 018.35-2.37h.1l.66-.02v-1.78a21.1 21.1 0 00-6.86 1.21l.15-.04-.63.2V3.6l.27-.13a17.14 17.14 0 017.26-1.68h.29l.39.02z"/>
      <path d="M14.84 3.65h-.01c-1.21 0-2.39-.14-3.52-.39l.1.02v17.27a14 14 0 003.43.4 18.6 18.6 0 009.4-2.57l-.08.05V1.26a19.05 19.05 0 01-4.44 1.76l-.14.03c-1.55.4-3.14.6-4.74.6zm6.9.3l.62-.2v13.62l-.26.13a16.84 16.84 0 01-8.52 1.62h.05l-.43-.04V5.07l.5.03a21.04 21.04 0 008.2-1.2l-.16.05zM1.7 25.98a.92.92 0 00-.66-.28H.99c-.13 0-.27.02-.4.07a.93.93 0 00-.58.9v2.35c0 .16.02.32.09.47a1 1 0 00.23.31c.1.08.2.14.32.17s.24.05.35.05a.98.98 0 00.97-.99v-.25h-.62v.2a.4.4 0 01-.03.2.38.38 0 01-.08.14.42.42 0 01-.26.09H.94a.3.3 0 01-.24-.12.55.55 0 01-.1-.3v-2.2c0-.12.03-.24.09-.34a.3.3 0 01.3-.14c.11 0 .2.05.27.13.06.08.1.19.1.3v.21h.6v-.24c0-.29-.1-.54-.27-.74zm3.62-.03a1.08 1.08 0 00-1.06-.19.97.97 0 00-.32.19 1.02 1.02 0 00-.32.78v2.24c0 .16.02.31.08.46.06.12.14.23.24.3.1.1.2.17.32.21a1.06 1.06 0 00.74 0h-.01a.96.96 0 00.65-.9v-2.31-.04a1 1 0 00-.32-.74zm-.28 3.02a.39.39 0 01-.13.32.45.45 0 01-.57 0 .4.4 0 01-.12-.29v-2.27a.39.39 0 01.12-.32.45.45 0 01.58 0 .4.4 0 01.12.29v2.27zm5.04 1v-4.25h-.59l-.77 2.25-.78-2.25h-.58v4.24h.6v-2.58h.01l.6 1.83h.3l.6-1.83v2.58h.61zm3.44-3.94a.78.78 0 00-.34-.23 1.31 1.31 0 00-.42-.07h-.92v4.24h.6V28.3h.31c.2 0 .38-.03.55-.11.25-.16.42-.4.47-.7a2.92 2.92 0 00-.03-1.1v.02a.9.9 0 00-.22-.4zm-.3 1.3c-.01.07-.03.14-.07.2a.32.32 0 01-.15.16.6.6 0 01-.27.06H12.43V26.3h.3c.1 0 .2.01.28.06.07.03.12.08.15.15a.6.6 0 01.05.23v.58zm3.16-1.6h-.5l-.92 4.24h.6l.18-.91h.82l.19.9h.6l-.96-4.23zm-.56 2.75l.3-1.54h.01l.3 1.54h-.6zm4.47-.2h-.02l-.9-2.55h-.58v4.24h.6v-2.55h.01l.92 2.55h.56v-4.25h-.6v2.56zm3.69-2.55l-.5 1.68-.5-1.68h-.62l.83 2.45v1.78h.6v-1.78l.83-2.45h-.64zM0 31.16h.29v.82h.2v-.82h.3V31h-.8v.16zM2.45 31l-.38.98h.2l.09-.22h.39l.08.22h.21L2.67 31h-.21zm-.03.6l.13-.38.13.37h-.26zm2.44.02h.24v.12a.38.38 0 01-.24.09h-.02a.25.25 0 01-.19-.1.4.4 0 01-.07-.23v-.02c0-.22.1-.33.28-.33h.02c.1 0 .18.07.2.15l.2-.03c-.04-.2-.18-.3-.42-.3h-.02a.5.5 0 00-.32.13.48.48 0 00-.14.39c0 .13.03.26.12.36.09.1.21.15.35.15h.03a.6.6 0 00.41-.16v-.39h-.43v.17zM7.33 31h-.2v.98h.7v-.16h-.5V31zm2.1 0h-.2v.98h.2V31zm2.04.66l-.4-.66h-.2v.98h.19v-.64l.4.64h.19V31h-.19v.65zm1.85-.1h.49v-.18h-.5v-.22h.53V31h-.73v.98h.76v-.16h-.56v-.27zm4.47-.17h-.39v-.4h-.2v1h.2v-.44h.4v.43h.19V31h-.2v.38zm1.86.16h.5v-.17h-.5v-.22h.53V31h-.73v.98h.75v-.16h-.55v-.27zm2.52 0c.17-.03.25-.12.25-.28a.23.23 0 00-.09-.21.55.55 0 00-.25-.06H21.62v.98h.2v-.41h.04c.04 0 .08 0 .12.03.03.01.06.04.08.07l.21.3h.23l-.12-.18a.64.64 0 00-.21-.24zm-.2-.14h-.15v-.24h.16c.06 0 .14 0 .2.02.03.02.05.06.05.1 0 .04-.02.08-.06.1a.56.56 0 01-.17.03h-.03zm2.1.14h.48v-.17h-.49v-.22h.54V31h-.73v.98h.75v-.16h-.56v-.27z"/>
    </symbol>
    <symbol id="icon-company" viewBox="0 0 31 32">
      <path d="M4.73 31.1c.02 0 .04.01.05.03l.15.15c-.11.14-.26.24-.43.31-.2.07-.4.12-.6.11-.2 0-.4-.03-.58-.1-.33-.13-.59-.4-.71-.72v-.01a1.57 1.57 0 010-1.16v.01c.14-.34.42-.6.75-.73h.01a1.62 1.62 0 011.15 0h-.01c.15.05.3.14.42.25l-.14.17-.03.03a.08.08 0 01-.04.01.1.1 0 01-.06-.02l-.08-.05-.1-.06c-.13-.07-.3-.12-.48-.12h-.04a1.02 1.02 0 00-.77.3c-.09.1-.15.21-.2.34a1.42 1.42 0 000 .91c.05.13.11.24.21.34.09.1.2.17.32.21.12.05.25.08.39.08.08 0 .15 0 .23-.02.2-.02.38-.1.51-.24a.11.11 0 01.07-.03zm4.42-.8a1.37 1.37 0 01-.4 1.01c-.12.12-.28.22-.44.28a1.68 1.68 0 01-1.18 0 1.3 1.3 0 01-.73-.73 1.58 1.58 0 010-1.15v.01a1.28 1.28 0 01.75-.73c.36-.13.78-.13 1.15 0 .34.14.6.4.74.72v.01c.08.19.1.38.1.58zm-.4 0c0-.15-.03-.3-.08-.46a.9.9 0 00-.52-.55 1.2 1.2 0 00-.87 0h.01a.9.9 0 00-.52.55c-.1.3-.1.61 0 .91a.9.9 0 00.52.55c.28.1.58.1.85 0a.9.9 0 00.52-.54c.06-.16.08-.3.08-.46zm3.41.47l.04.1.04-.1.05-.1.99-1.7c.01-.02.03-.04.05-.04l.06-.01h.31v2.75h-.34v-2.2l-1 1.71a.16.16 0 01-.04.07.16.16 0 01-.09.02h-.06c-.03 0-.05 0-.08-.02a.15.15 0 01-.06-.07l-1-1.73v2.21h-.34v-2.75h.3l.07.01c.02.02.04.03.05.06l1 1.7.05.09zm3.68-.13v1.03h-.38v-2.75h.85c.17 0 .32.01.48.06a.8.8 0 01.33.17.7.7 0 01.2.27c.04.11.07.23.06.35a.83.83 0 01-.28.63c-.1.07-.2.15-.33.18-.13.04-.29.07-.44.07h-.03l-.46-.01zm0-.3h.46c.1 0 .2-.01.3-.04.08-.03.15-.07.22-.12.05-.05.1-.1.12-.18a.6.6 0 00.05-.23v-.03a.5.5 0 00-.17-.38.75.75 0 00-.52-.15h-.46v1.13zM21 31.67h-.3-.02c-.02 0-.05 0-.07-.02a.18.18 0 01-.05-.06l-.26-.68h-1.3l-.27.67a.14.14 0 01-.06.06.14.14 0 01-.08.03h-.3l1.14-2.75h.4L21 31.67zm-1.9-1.02h1.09l-.47-1.12a1.84 1.84 0 01-.07-.25v-.01l-.05.15-.5 1.23zm3.55-1.72l.06.05 1.67 2.08v-2.14h.34v2.75h-.19l-.07-.01a.21.21 0 01-.06-.05l-1.68-2.08v2.14h-.34v-2.75h.2l.08.01zm4.9 1.65v1.1h-.38v-1.1l-1.06-1.66h.34c.03 0 .06 0 .07.02l.06.06.67 1.07.1.24.06-.11.07-.13.64-1.08a.28.28 0 01.06-.05.12.12 0 01.07-.03h.36l-1.07 1.67zm-15.57-6.29l.51.05c2.6-1.11 4.73-2.9 6.25-5.13l.03-.05A13.12 13.12 0 0021 11.53v.01l-2.85-2.71c.58 2.87.3 5.83-.78 8.57-1.16 2.82-3 5.15-5.34 6.86l-.05.03z"/>
      <path d="M10.95 24.16l.08.02a15.42 15.42 0 005.65-7l.04-.1a14.57 14.57 0 00.5-9.03l.02.1-4.05-3.86a17.85 17.85 0 01-2.26 19.9l.02-.03zm13.76-9.43a14.03 14.03 0 01-4.75 7.59l-.02.02c-.71.58-1.47 1.1-2.27 1.55 2.03-.58 3.8-1.56 5.28-2.85l-.01.01a12.76 12.76 0 003.38-4.68l.03-.08-1.64-1.56z"/>
      <path d="M24.06 14.29l-2.34-2.23a13.68 13.68 0 01-2.23 7.24l.03-.05a14.78 14.78 0 01-5.65 5.1l-.08.03h.01c.53 0 1.05-.02 1.57-.08a14.47 14.47 0 005.65-3.95l.02-.01a13.4 13.4 0 003-5.97l.02-.08zM11.3 2.66L8.5 0a13.28 13.28 0 00-6.14 4.6l-.02.04A12.16 12.16 0 000 11.78a12.24 12.24 0 002.84 7.78l-.01-.02A13.38 13.38 0 009.98 24l.09.02a17.6 17.6 0 004.3-11.46c0-3.7-1.15-7.13-3.11-9.95l.04.05zM30.5 13.88a12.32 12.32 0 00-3.88-8.9h-.01a13.57 13.57 0 00-14.19-2.84l.1-.03 17.1 16.29c.58-1.45.89-2.98.88-4.52z"/>
    </symbol>
    <symbol id="icon-fosterpeters" viewBox="0 0 60 32">
      <path d="M9.23 9.55h-.05a3 3 0 00-3 2.97c0 1.64 1.37 2.98 3.05 2.98s3.05-1.34 3.05-2.98-1.37-2.97-3.05-2.97zm22.5-.96c0-2.27-.94-4.46-2.59-6.07a8.93 8.93 0 00-12.47 0 8.48 8.48 0 00-2.6 6.07v12.57s17.65-1.9 17.66-12.56zM0 25.3c0 1.58.66 3.1 1.8 4.22a6.21 6.21 0 008.68 0 5.9 5.9 0 001.8-4.22v-8.74S0 17.88 0 25.3zm6.14 1.56c-.34 0-.64-.1-.9-.26A1.54 1.54 0 015 24.18a1.62 1.62 0 011.77-.33h-.01a1.54 1.54 0 01.52 2.55 1.6 1.6 0 01-1.13.47h-.01v-.01zm12.53-.97h-1.26v1.3h-.65V24h2.07v.53H17.4v.81h1.26v.53zm3.14-.22c0 .32-.05.6-.16.83-.2.44-.63.74-1.14.74h-.05-.04c-.5 0-.94-.3-1.14-.72-.11-.23-.17-.5-.17-.78v-.2c0-.32.06-.6.17-.83.2-.44.64-.74 1.15-.74h.04a1.3 1.3 0 011.18.74c.11.24.16.51.16.82v.15zm-.66-.14c0-.33-.06-.58-.18-.75a.58.58 0 00-.48-.26h-.03c-.22 0-.39.08-.51.25s-.18.42-.18.75v.15c0 .33.06.58.18.76s.3.27.52.27c.22 0 .38-.09.5-.26.12-.18.18-.42.18-.76v-.14zm2.78.83c0-.13-.03-.22-.12-.29-.14-.09-.3-.16-.46-.2h-.01c-.23-.08-.41-.16-.55-.22-.35-.2-.53-.46-.53-.8 0-.16.04-.31.14-.45s.24-.24.42-.32a1.6 1.6 0 011.2.02c.34.14.57.46.57.84v.02h-.65c0-.15-.04-.27-.14-.35a.55.55 0 00-.35-.12h-.04-.03a.6.6 0 00-.34.1.32.32 0 00-.13.27c0 .1.05.2.15.26.1.07.26.14.46.2a2 2 0 01.82.42c.17.16.26.37.26.61 0 .28-.1.5-.32.65-.2.15-.49.23-.84.23h-.02c-.23 0-.46-.05-.66-.13h.01a.95.95 0 01-.62-.89v-.02h.67c0 .35.2.52.62.52.15 0 .28-.02.37-.09.09-.06.12-.15.12-.26zm3.5-1.81h-.97v2.64h-.66v-2.64h-.96V24h2.58v.53zm2.28 1.26h-1.25v.86h1.47v.52H27.8V24h2.12v.53h-1.46v.76h1.25v.52zm1.78.22h-.52v1.16h-.66V24h1.18c.38 0 .67.08.87.25.2.17.3.4.3.7 0 .22-.04.4-.14.55a.9.9 0 01-.42.34l.69 1.3v.03h-.7l-.6-1.16zm-.52-.53h.52c.17 0 .3-.04.38-.13.1-.08.15-.2.15-.32v-.02a.48.48 0 00-.14-.36c-.08-.08-.21-.12-.39-.12h-.52v.95zm3.96.57v1.12h-.65V24h1.23c.24 0 .45.04.64.12.17.1.32.22.41.38.1.16.15.35.15.55 0 .31-.11.55-.32.74-.21.17-.5.26-.9.26h-.56zm0-.53h.58a.6.6 0 00.4-.12c.1-.08.14-.2.14-.35v-.02a.52.52 0 00-.15-.36.51.51 0 00-.36-.14h-.61v1zm4.14.28h-1.26v.85h1.47v.52h-2.13V24h2.13v.52H37.8v.77h1.26v.52zm3.04-1.27h-.97v2.64h-.66v-2.65h-.96v-.52h2.59v.52zm2.28 1.27h-1.26v.85h1.48v.52h-2.13V24h2.12v.52h-1.47v.77h1.26v.52zm1.78.2h-.52v1.17h-.66V24h1.18c.37 0 .67.08.87.25.2.17.3.4.3.7 0 .22-.05.4-.14.55a.98.98 0 01-.42.34l.69 1.3v.03h-.7l-.6-1.16zm-.52-.51h.52c.16 0 .3-.05.39-.14.08-.08.13-.2.13-.32v-.02a.5.5 0 00-.13-.36.57.57 0 00-.4-.12h-.51v.95zm3.84.85a.34.34 0 00-.14-.29c-.13-.09-.29-.16-.45-.2h-.02c-.22-.08-.4-.16-.53-.22-.37-.2-.54-.46-.54-.8 0-.16.05-.31.14-.45s.24-.24.41-.32a1.63 1.63 0 011.22.02c.33.14.56.46.56.84v.02h-.65a.44.44 0 00-.14-.35.55.55 0 00-.34-.12h-.05-.03a.6.6 0 00-.34.1.32.32 0 00-.13.27c0 .1.05.2.15.26.11.07.27.14.47.2.37.11.64.25.81.42.17.16.25.37.25.61 0 .28-.1.5-.31.65-.2.15-.48.23-.83.23h-.03c-.23 0-.45-.05-.65-.13a.95.95 0 01-.61-.89v-.02h.65c0 .35.21.52.64.52.15 0 .27-.02.35-.09a.3.3 0 00.14-.26z"/>
    </symbol>
    <symbol id="icon-brand" viewBox="0 0 40 32">
      <path d="M3.06 26.74c.15.2.23.44.23.69a1.1 1.1 0 01-.36.87c-.3.23-.68.34-1.06.32H0v-4.36h1.83c.36-.03.72.07 1.01.29a1 1 0 01.35.82c.02.23-.06.47-.2.66-.15.17-.35.3-.57.34.26.05.48.18.64.37zm-2.2-.66h.79c.17.02.35-.04.5-.14a.51.51 0 00.17-.43v-.03c0-.15-.07-.3-.18-.4a.74.74 0 00-.5-.14H.86v1.14zm1.37 1.68a.54.54 0 00.17-.45v-.03a.55.55 0 00-.18-.41.8.8 0 00-.53-.16H.87v1.2h.82c.2.01.38-.04.53-.15zm4.56.86l-1.02-1.7H5.4v1.7h-.87v-4.36h1.76c.4 0 .77.13 1.05.37a1.39 1.39 0 01.12 1.8c-.2.24-.48.4-.8.44l1.1 1.75h-.96zm-1.4-2.3h.72c.5 0 .75-.22.75-.66v-.03a.65.65 0 00-.2-.46.73.73 0 00-.55-.18h-.73v1.33zm6.18 1.42H9.82l-.3.88H8.6l1.6-4.31h1l1.59 4.3h-.92l-.3-.87zm-.23-.66l-.64-1.84-.64 1.84h1.28zm6.21 1.54h-.87l-1.95-2.97v2.97h-.86v-4.36h.86l1.95 2.97v-2.98h.87v4.36zm4.95-1.05c-.18.33-.45.6-.78.77-.38.2-.8.29-1.23.28h-1.54v-4.36h1.54c.43-.02.85.08 1.23.27.33.16.6.43.78.75a2.51 2.51 0 010 2.3zm-1-.1a1.6 1.6 0 000-2.08 1.5 1.5 0 00-1.09-.37h-.59v2.82h.6c.4.03.79-.1 1.1-.37zM12.12 0s11.2 4.25 10.96 10.39v10.39s-11.19-4.25-10.96-10.39V0zm20.95 18.35a15.27 15.27 0 017.11-2.64v-3.25c-3 1.18-5.44 3.23-7.08 5.83l-.03.06z"/>
      <path d="M31.78 19.33a15.33 15.33 0 018.28-7.52l.11-.03V2.4s-15.95 6.05-15.61 14.8V32s.7-.27 1.82-.78c0-.47 0-.95.06-1.43.35-4.2 2.34-7.88 5.32-10.44l.02-.02z"/>
      <path d="M30.26 24.82c.1-1.02.28-2.04.56-3.03a14.25 14.25 0 00-3.38 8.93v.01c1.3-.62 2.3-1.16 3.29-1.74l-.22.12a14.98 14.98 0 01-.24-4.34v.05zm.64.06c-.1 1.3-.04 2.6.2 3.88 4.36-2.62 9.25-6.67 9.06-11.56v-.42c-3.24.37-6.1 1.79-8.3 3.9h.01c-.5 1.22-.85 2.65-.97 4.15v.05z"/>
    </symbol>
    <symbol id="icon-companytl" viewBox="0 0 62 32">
      <path d="M31.12 14.85a2.25 2.25 0 01-.4-1.43v-2.08c0-.63.14-1.11.4-1.45s.72-.5 1.36-.5c.6 0 1.03.15 1.28.43.28.36.41.8.38 1.24v.49h-1.07v-.49c0-.17-.01-.33-.04-.49a.48.48 0 00-.15-.29.57.57 0 00-.4-.1l-.04-.01a.61.61 0 00-.37.12.55.55 0 00-.17.32 3.1 3.1 0 00-.04.5v2.53a1.43 1.43 0 00.14.71c.05.06.12.13.2.17.1.03.2.05.28.03.14.02.28-.02.4-.1a.57.57 0 00.15-.31c.02-.17.04-.34.04-.5v-.52h1.07v.47a2 2 0 01-.37 1.3c-.25.31-.67.46-1.29.46s-1.09-.16-1.35-.5zm4.49.02c-.28-.32-.42-.79-.42-1.4v-2.2c0-.62.14-1.08.42-1.4.27-.32.72-.47 1.36-.47.63 0 1.09.16 1.36.47s.41.78.41 1.4v2.18c0 .62-.14 1.09-.42 1.42s-.72.48-1.35.48c-.62 0-1.09-.16-1.36-.48zm1.87-.52c.1-.2.13-.42.12-.65v-2.67c.01-.21-.03-.43-.13-.62a.53.53 0 00-.2-.18h-.01a.53.53 0 00-.29-.04h-.07a.53.53 0 00-.43.21c-.1.2-.14.42-.14.63v2.69c0 .22.04.44.14.65.12.13.3.21.49.21h.01a.7.7 0 00.5-.21v-.02zm2.55-4.88h1.17l.87 4.03.89-4.03h1.12l.12 5.81h-.83l-.1-4.04-.86 4.04h-.66l-.9-4.05-.08 4.05h-.84l.1-5.81zm5.47 0h1.8c1.05 0 1.57.55 1.57 1.65 0 1.05-.56 1.58-1.65 1.58h-.61v2.58H45.5V9.46zm1.54 2.48h.1a.8.8 0 00.51-.18c.13-.2.19-.43.17-.66 0-.17-.01-.35-.06-.52a.47.47 0 00-.22-.28 1.1 1.1 0 00-.5-.1h-.43v1.74h.43zm3.44-2.48h1.2l1.22 5.81h-1.05l-.23-1.34h-1.07l-.25 1.34h-1.05l1.23-5.81zm1.02 3.8l-.42-2.44-.41 2.44h.83zm2.4-3.8h.77l1.5 3.32V9.46h.92v5.82h-.74l-1.5-3.47v3.47h-.96V9.46zm5.36 3.6l-1.24-3.6h1.04l.77 2.31.7-2.3h1.01l-1.22 3.58v2.22h-1.07v-2.22zm-26.42 4.75v.3h-.9v2.37h-.39v-2.36h-.9v-.3h2.2zm2.85 2.67h-.29a.13.13 0 01-.08-.03.14.14 0 01-.05-.06l-.26-.63h-1.26l-.27.63c0 .03-.02.05-.04.07a.13.13 0 01-.08.03h-.3l1.12-2.67h.39l1.12 2.66zm-1.84-1h1.05l-.45-1.08a1.75 1.75 0 01-.08-.23v-.02l-.04.14-.04.11-.44 1.09zm3.77.73h.21c.12 0 .24-.03.34-.08l.15-.06v-.6h-.45c-.03 0-.05 0-.06-.02a.06.06 0 01-.02-.05v-.21h.86v1.03c-.2.14-.46.24-.74.27-.11.02-.22.02-.33.02a1.5 1.5 0 01-1-.38 1.28 1.28 0 01-.4-.97c0-.19.03-.38.1-.56.13-.33.4-.58.73-.7.2-.06.4-.1.6-.1.2 0 .4.04.59.1h-.01c.16.05.3.13.41.24l-.1.16-.03.04a.1.1 0 01-.06.01c-.03 0-.05 0-.07-.02a1.28 1.28 0 00-.72-.22h-.03c-.14 0-.29.03-.43.07-.12.05-.23.13-.32.21-.1.1-.16.21-.21.34-.1.29-.1.6 0 .89a.95.95 0 001 .6zm3.56-.04h1.21v.3H40.8v-2.66h.38v2.37zm2.48.3h-.38v-2.66h.38v2.67zm1.42-2.64c.02 0 .03.02.05.05l1.63 2v-2.08h.34v2.68h-.2c-.03 0-.05 0-.08-.02a.2.2 0 01-.06-.04l-1.62-2.01v2.07h-.32v-2.67H45c.02 0 .05 0 .07.02zm4.82-.02v.3h-1.34V19h1.09v.28h-1.1v.9h1.36v.3h-1.74v-2.66h1.74zM9.95 1.36L26.88 5.9v15.95L9.95 17.3V1.36zM8.86 0v18.09l19.1 5.12V5.13L8.87 0z"/>
      <path d="M19.1 31.61L0 26.47V8.39l19.1 5.14v18.08z"/>
      <path d="M9.18 1.16L25.9 5.65l-7.1 6.73-16.72-4.5 7.11-6.72zM8.86 0L0 8.39l19.1 5.14 8.87-8.4L8.87 0zm11.31 30.6l7.8-7.38-7.8-2.1v9.47z"/>
    </symbol>
    <symbol id="icon-instagram" viewBox="0 0 32 32">
      <path d="M31.97 9.4c-.03-1.4-.3-2.73-.76-3.96l.02.08a7.86 7.86 0 00-1.85-2.83A7.95 7.95 0 0026.54.85 11.48 11.48 0 0022.67.1h-.01a104.86 104.86 0 00-6.69-.1h.1c-4.36 0-4.9.02-6.6.1C7.76.16 6.6.45 5.58.83A8 8 0 002.75 2.7 8 8 0 00.9 5.52 11.47 11.47 0 00.16 9.4a104.86 104.86 0 00-.1 6.69V16c0 4.35 0 4.9.08 6.6.03 1.4.3 2.73.78 3.96l-.02-.08a7.78 7.78 0 001.85 2.83 8 8 0 002.83 1.86c1.01.38 2.18.65 3.88.73 1.7.08 2.24.1 6.59.1s4.9-.02 6.6-.1c1.4-.02 2.73-.29 3.96-.76l-.08.03a8.24 8.24 0 004.67-4.64l.02-.05c.38-1.02.67-2.18.73-3.89.08-1.7.1-2.24.1-6.59 0-4.34 0-4.88-.08-6.6zm-2.88 13.08a8.54 8.54 0 01-.55 2.96 5.34 5.34 0 01-3 3.03l-.04.01c-.56.22-1.42.48-2.97.54-1.68.08-2.2.1-6.47.1a106.97 106.97 0 01-6.7-.1h.24a8.45 8.45 0 01-2.96-.54 4.96 4.96 0 01-1.84-1.2c-.52-.5-.93-1.1-1.19-1.79l-.01-.03a8.64 8.64 0 01-.54-2.98 108.67 108.67 0 01-.1-6.55v.09c0-4.28.02-4.79.1-6.47.06-1.57.32-2.4.54-2.97.26-.7.66-1.32 1.2-1.83.5-.52 1.12-.93 1.8-1.19h.04c.56-.23 1.4-.49 2.98-.55 1.68-.08 2.19-.1 6.44-.1 4.3 0 4.8 0 6.47.1 1.57.06 2.4.32 2.97.54.7.26 1.33.66 1.84 1.2.53.51.95 1.14 1.2 1.83.21.57.48 1.42.55 2.97.08 1.68.1 2.2.1 6.47s-.02 4.76-.1 6.46z"/>
      <path d="M16.06 7.78a8.22 8.22 0 100 16.44 8.22 8.22 0 100-16.44zm0 13.55a5.33 5.33 0 110-10.66 5.33 5.33 0 110 10.66zM26.53 7.46a1.92 1.92 0 01-3.84 0 1.92 1.92 0 013.84 0z"/>
    </symbol>
    <symbol id="icon-twitter" viewBox="0 0 32 32">
      <path d="M32 6.08c-1.18.53-2.46.86-3.78 1.04a6.46 6.46 0 002.88-3.63 13.95 13.95 0 01-4.16 1.6 6.54 6.54 0 00-11.37 4.45c0 .54.06 1.06.18 1.56v-.04A18.55 18.55 0 012.26 4.23l-.03-.04a6.6 6.6 0 001.98 8.75l.02.02a6.3 6.3 0 01-2.96-.8v.06c0 3.2 2.27 5.84 5.26 6.45a6.41 6.41 0 01-3.01.1l.04.01a6.64 6.64 0 006.13 4.56h.01a13.1 13.1 0 01-9.77 2.73H0a18.29 18.29 0 0010 2.95h.07c12.08 0 18.67-10 18.67-18.67 0-.29 0-.58-.03-.85A13.1 13.1 0 0032 6.1z"/>
    </symbol>
    <symbol id="icon-facebook" viewBox="0 0 32 32">
      <path d="M21.33 5.31h2.93V.22C23.74.16 22.02 0 20 0c-4.22 0-7.1 2.66-7.1 7.52V12H8.26v5.68h4.64V32h5.7V17.7h4.46l.7-5.7h-5.17V8.08c0-1.65.45-2.77 2.74-2.77z"/>
    </symbol>
    <symbol id="icon-linkedin" viewBox="0 0 32 32">
      <path d="M32 32V20.26c0-5.73-1.23-10.16-7.95-10.16h-.26a6.96 6.96 0 00-6 3.42l-.01.03h-.1v-2.91H11.3V32h6.64V21.42c0-2.78.53-5.49 3.97-5.49 3.4 0 3.45 3.19 3.45 5.67V32H32zM.53 10.64h6.64V32H.53V10.64zM3.84 0A3.84 3.84 0 000 3.84v.02a3.87 3.87 0 003.84 3.87 3.87 3.87 0 000-7.73z"/>
    </symbol>
    <symbol id="icon-close" viewBox="0 0 32 32">
      <path d="M26.67 7.3L24.7 5.33l-7.81 7.81-7.8-7.8L7.1 7.3l7.8 7.81-7.8 7.8 1.97 1.98 7.8-7.8 7.82 7.8 1.97-1.97-7.81-7.8 7.8-7.82z"/>
    </symbol>
    <symbol id="icon-send" viewBox="0 0 24 24">
      <path d="M24 0L0 13.5l7.67 2.84L19.5 5.25l-9 12.14V24l4.3-5.02L20.25 21 24 0z"/>
    </symbol>
    <symbol id="icon-email-black" viewBox="0 0 18 18">
      <path d="M15 3H3c-.83 0-1.5.67-1.5 1.5v9c0 .82.67 1.5 1.5 1.5h12c.82 0 1.5-.68 1.5-1.5v-9c0-.83-.68-1.5-1.5-1.5zm-.3 3.19L9.4 9.5a.76.76 0 01-.8 0L3.3 6.2a.64.64 0 11.68-1.08L9 8.25l5.03-3.14a.64.64 0 11.67 1.08z"/>
    </symbol>
    <symbol id="icon-person-black" viewBox="0 0 18 18">
       <path d="M9 9a3 3 0 100-6 3 3 0 000 6zm0 1.5c-2 0-6 1-6 3v.75c0 .41.34.75.75.75h10.5c.41 0 .75-.34.75-.75v-.75c0-2-4-3-6-3z"/>
    </symbol>
      <symbol id="icon-phone-black" viewBox="0 0 18 18">
       <path d="M14 11.12l-1.84-.2c-.44-.06-.88.1-1.19.4l-1.33 1.34a10.89 10.89 0 01-4.77-4.77l1.34-1.34c.31-.31.46-.75.41-1.19l-.2-1.82a1.45 1.45 0 00-1.45-1.28H3.72c-.82 0-1.5.68-1.45 1.5a12.3 12.3 0 0011.5 11.5c.82.05 1.5-.63 1.5-1.45v-1.25c0-.74-.54-1.35-1.27-1.44z"/>
    </symbol>
    <symbol id="icon-vector" viewBox="0 0 16 15">
       <path d="M14.22 1.67v11.66H1.78V1.67h12.44zm0-1.67H1.78C.8 0 0 .75 0 1.67v11.66C0 14.25.8 15 1.78 15h12.44c.98 0 1.78-.75 1.78-1.67V1.67C16 .75 15.2 0 14.22 0z"/>
    </symbol>
    <symbol id="icon-check" viewBox="0 0 16 15">
       <path fill="#fff" stroke="#fff" stroke-width=".2" d="M3.96 7.75l-.07-.06-.07.06-.89.84-.08.07.08.08 3.5 3.33.07.07.06-.07 7.5-7.16.08-.07-.07-.07-.88-.84-.07-.07-.07.07-6.55 6.24-2.54-2.42z"/>
    </symbol>
  </defs>
</svg>
